<?xml version="1.0" encoding="UTF-8" standalone="no"?>
<svg width="29px" height="19px" viewBox="0 0 29 19" version="1.1" xmlns="http://www.w3.org/2000/svg" xmlns:xlink="http://www.w3.org/1999/xlink">
    <!-- Generator: Sketch 41 (35326) - http://www.bohemiancoding.com/sketch -->
    <title>线上培训-人员</title>
    <desc>Created with Sketch.</desc>
    <defs></defs>
    <g id="我的" stroke="none" stroke-width="1" fill="none" fill-rule="evenodd">
        <g id="培训推荐" transform="translate(-31.000000, -725.000000)" fill="#F74D3F">
            <g id="Group-Copy" transform="translate(0.000000, 689.000000)">
                <g id="线上培训-人员" transform="translate(31.000000, 36.000000)">
                    <path d="M16.2914695,14.5569438 C15.067857,14.0070004 13.6251568,12.9448903 11.0241153,12.6169498 C11.8105885,12.0049446 12.1780904,10.7449318 12.847823,9.02069386 C12.8575545,8.99529993 12.8666199,8.96879706 12.8760554,8.94325528 C13.0270227,8.97005384 13.1801732,8.9687971 13.2919186,8.89764228 C13.6041398,8.69985044 13.793737,7.62136546 13.7993983,7.09592884 C13.8081677,6.30838383 13.4190198,6.38597029 13.4190198,6.38597029 C13.4190198,6.38597029 13.4108424,6.3836416 13.3989648,6.3804997 C13.4008149,6.31762473 13.4046261,6.25478674 13.4046261,6.19191177 C13.4046261,5.4802529 13.547416,4.27734867 13.361001,3.60768037 C13.0795283,2.59609939 12.683424,1.76941 11.9923784,1.48394064 C11.0837992,1.10913042 9.79806066,0.029277808 9.37938528,0.029277808 C8.87564276,0.029277808 7.54128385,1.08454969 6.75762273,1.49162906 C6.09547554,1.83587045 5.67617114,2.60471191 5.3962525,3.61437076 C5.2154987,4.26600086 5.35418146,5.45260418 5.35418146,6.19187482 C5.35418146,6.25364089 5.35795563,6.31555481 5.35984274,6.37732085 C5.34100882,6.3823479 5.32783618,6.38593334 5.32783618,6.38593334 C5.32783618,6.38593334 4.93805923,6.30834688 4.94686563,7.09589189 C4.95248992,7.62132851 5.14238314,8.69981348 5.45464133,8.89760533 C5.5694949,8.97068221 5.7276776,8.97068221 5.88208612,8.94137016 C5.89277962,8.96927762 5.90280711,8.99873756 5.91346366,9.02616449 C6.59041159,10.7644115 6.9363044,12.0178079 7.72866095,12.6231967 C5.15337268,12.9586407 3.72040398,14.0132472 2.50430281,14.5616012 C0.0391688781,15.672688 0.026921295,16.9041281 0.026921295,16.9041281 L0.026921295,18.9707592 L18.7781384,18.9682826 L18.7781384,16.9041281 C18.7779905,16.9041281 18.7666679,15.6685851 16.2914695,14.5569438 L16.2914695,14.5569438 Z M12.0955024,12.2325291 C12.0549854,12.2695296 12.0142464,12.3052733 11.9718794,12.3385036 C12.0136174,12.3435306 12.0543934,12.3497774 12.0955024,12.3554328 L12.0955024,12.2325291 L12.0955024,12.2325291 Z M14.4024906,4.50360244 L26.2183124,4.50360244 L26.2183124,13.0344899 L14.6720487,13.0344899 C15.7290422,13.4577223 16.5221017,13.9562125 17.2395666,14.2784606 C17.6553929,14.4653113 18.0018777,14.7434249 18.2902697,15.0760597 L28.2382036,15.0760597 L28.2382036,2.4618848 L14.0121216,2.4618848 C14.1251251,2.72695029 14.2223659,3.01929484 14.3086541,3.32919712 C14.3949423,3.64009737 14.410668,4.06565851 14.4024906,4.50360244 L14.4024906,4.50360244 Z M19.0801841,16.1733591 C19.2719645,16.5905665 19.4140884,17.028917 19.5201725,17.4493033 L28.2224409,17.4493032 C28.6207283,17.4493032 28.9470841,17.2195009 28.9470841,16.9388738 L28.9470841,16.1733591 L19.0801841,16.1733591 L19.0801841,16.1733591 Z M19.0205373,6.72074899 C19.3413059,7.70457037 20.2334933,7.70283306 20.5530408,6.72074899 C20.658718,6.66463834 20.7670222,6.49896781 20.7846351,6.36150042 C20.803136,6.21774924 20.7924795,6.02649994 20.6490605,6.02649994 C20.618016,5.56530597 20.3675878,5.17515588 19.7985371,5.17515588 C19.2427331,5.17515588 18.9597063,5.51363095 18.9248876,6.02649994 C18.7814316,6.02649994 18.7704791,6.21774924 18.789313,6.36150042 C18.8068518,6.49896781 18.9150821,6.66463834 19.0205373,6.72074899 L19.0205373,6.72074899 Z M17.8204579,8.53924387 L17.8204579,11.3387139 C17.8204579,11.7152614 18.1217635,12.0206172 18.4939646,12.0206172 L18.4939646,12.3629364 L21.0805384,12.3629364 L21.0805384,12.0206172 C21.4527765,12.0206172 21.7540082,11.7152244 21.7540082,11.3387139 L21.7540082,11.3158335 L24.3767698,8.66514163 C24.4479612,8.59350632 24.4479612,8.47751475 24.3767698,8.40602728 C24.3061333,8.33424409 24.1915388,8.33424409 24.1209393,8.40602728 L21.7540082,10.7976047 L21.7540082,8.53928082 C21.7540082,8.04833119 21.399975,7.62369412 20.9044469,7.51834808 L20.5420512,7.44260982 L19.7869555,8.96247631 L19.0318598,7.44260982 L18.6696861,7.51834808 C18.1738621,7.6236572 17.8204579,8.04829424 17.8204579,8.53924387 L17.8204579,8.53924387 Z" id="Shape"></path>
                </g>
            </g>
        </g>
    </g>
</svg>