<?xml version="1.0" encoding="utf-8"?>
<!-- Generator: Adobe Illustrator 16.0.0, SVG Export Plug-In . SVG Version: 6.00 Build 0)  -->
<!DOCTYPE svg PUBLIC "-//W3C//DTD SVG 1.1//EN" "http://www.w3.org/Graphics/SVG/1.1/DTD/svg11.dtd">
<svg version="1.1" id="图层_1" xmlns="http://www.w3.org/2000/svg" xmlns:xlink="http://www.w3.org/1999/xlink" x="0px" y="0px"
	 width="150px" height="150px" viewBox="0 0 150 150" enable-background="new 0 0 150 150" xml:space="preserve">
<circle fill-rule="evenodd" clip-rule="evenodd" fill="#E02D2D" cx="75" cy="75" r="70.002"/>
<g>
	<path fill-rule="evenodd" clip-rule="evenodd" fill="#FFFFFF" d="M75,31.432c11.448,0,21.176,4.041,29.193,12.124
		c8.006,8.088,12.02,17.782,12.02,29.083v32.194c0,3.726-1.361,6.944-4.085,9.662c-2.713,2.723-5.936,4.079-9.656,4.079H88.736
		V81.866h18.245v-9.222c0-8.872-3.115-16.421-9.335-22.641c-6.226-6.23-13.779-9.352-22.646-9.352
		c-8.872,0-16.421,3.115-22.646,9.341c-6.22,6.226-9.335,13.774-9.335,22.646v9.232h18.245v36.703H47.528
		c-3.72,0-6.944-1.361-9.662-4.085c-2.718-2.712-4.079-5.937-4.079-9.656V72.645c0-11.307,4.008-21.001,12.02-29.084
		C53.825,35.468,63.552,31.427,75,31.427V31.432L75,31.432z"/>
</g>
</svg>
