<?xml version="1.0" encoding="UTF-8" standalone="no"?>
<svg width="21px" height="19px" viewBox="0 0 21 19" version="1.1" xmlns="http://www.w3.org/2000/svg" xmlns:xlink="http://www.w3.org/1999/xlink">
    <!-- Generator: Sketch 41 (35326) - http://www.bohemiancoding.com/sketch -->
    <title>Shape</title>
    <desc>Created with Sketch.</desc>
    <defs></defs>
    <g id="我的" stroke="none" stroke-width="1" fill="none" fill-rule="evenodd">
        <g id="培训推荐" transform="translate(-313.000000, -725.000000)" fill="#8D8D8D">
            <g id="Group-Copy" transform="translate(0.000000, 689.000000)">
                <path d="M313,51.4749342 L316.475687,51.4749342 L316.475687,42.0247652 L313,42.0247652 L313,51.4749342 L313,51.4749342 Z M313,53.7416764 C313,54.3950551 313.478786,54.9248142 314.129957,54.9248142 L315.34573,54.9248142 C315.996947,54.9248142 316.475687,54.3950552 316.475687,53.7416764 L316.475687,52.6575903 L313,52.6575903 L313,53.7416764 L313,53.7416764 Z M315.34573,38.4271335 L314.129957,38.4271335 C313.478786,38.4271335 313,38.9566631 313,39.6100419 L313,40.8297907 L316.475687,40.7927668 L316.475687,39.6100419 C316.475687,38.9566631 315.996947,38.4271335 315.34573,38.4271335 L315.34573,38.4271335 Z M317.728365,53.7416764 C317.728365,54.3950551 318.157922,54.9248142 318.809093,54.9248142 L321.240729,54.9248142 C321.891946,54.9248142 322.419734,54.3950552 322.419734,53.7416764 L322.419734,52.6698399 L317.728365,52.6698399 L317.728365,53.7416764 L317.728365,53.7416764 Z M317.728365,51.4256148 L322.419711,51.4378644 L322.419711,39.6223373 L317.728365,39.6223373 L317.728365,51.4256148 L317.728365,51.4256148 Z M321.240729,36 L318.809093,36 C318.157922,36 317.728365,36.5297591 317.728365,37.1829084 L317.728365,38.4149068 L322.419711,38.4519308 L322.419711,37.1829084 C322.419734,36.5297591 321.891946,36 321.240729,36 L321.240729,36 Z M328.31471,38.439383 L324.753139,38.439383 C324.102105,38.439383 323.574135,38.9689127 323.574135,39.6223373 L323.574135,53.7787004 C323.574135,54.432125 324.102082,54.9616547 324.753139,54.9616547 L328.31471,54.9616547 C328.965927,54.9616547 329.493715,54.432125 329.493715,53.7787004 L329.493715,39.6223373 C329.493715,38.9689127 328.965927,38.439383 328.31471,38.439383 L328.31471,38.439383 Z M330.684975,50.2427064 L333.030705,50.193387 L333.030705,46.755963 L330.684975,46.7682126 L330.684975,50.2427064 L330.684975,50.2427064 Z M330.684975,53.8280198 C330.684975,54.4813985 331.090088,54.9616547 331.741191,54.9616547 L331.92542,54.9616547 C332.576591,54.9616547 333.030728,54.432125 333.030728,53.7787004 L333.030728,51.4378414 L330.684998,51.4871608 L330.684998,53.8280198 L330.684975,53.8280198 Z M331.925397,41.9509008 L331.741168,41.9509008 C331.090065,41.9509008 330.684952,42.5297499 330.684952,43.1828992 L330.684952,45.5114627 L333.030682,45.5114627 L333.030682,43.1335798 C333.030705,42.4804305 332.576568,41.9509008 331.925397,41.9509008 L331.925397,41.9509008 Z" id="Shape"></path>
            </g>
        </g>
    </g>
</svg>