<?xml version="1.0" encoding="UTF-8" standalone="no"?>
<svg width="19px" height="19px" viewBox="0 0 19 19" version="1.1" xmlns="http://www.w3.org/2000/svg" xmlns:xlink="http://www.w3.org/1999/xlink">
    <!-- Generator: Sketch 41 (35326) - http://www.bohemiancoding.com/sketch -->
    <title>Shape</title>
    <desc>Created with Sketch.</desc>
    <defs></defs>
    <g id="我的" stroke="none" stroke-width="1" fill="none" fill-rule="evenodd">
        <g id="培训推荐" transform="translate(-223.000000, -725.000000)" fill="#989898">
            <g id="Group-Copy" transform="translate(0.000000, 689.000000)">
                <path d="M239.605872,43.8654956 L239.605872,39.5607506 C239.605872,38.9051686 239.074989,38.3738848 238.41986,38.3738848 L228.930759,38.3738848 C228.275565,38.3738848 227.744288,38.9051467 227.744288,39.5607506 L227.744288,51.4294085 C227.744288,52.0847279 228.275543,52.6161868 228.930759,52.6161868 L230.860432,52.6161868 C231.347596,53.5627761 232.040079,54.3827025 232.906017,54.9896337 L228.930759,54.9896337 C226.965154,54.9896337 225.372177,53.3958043 225.372177,51.4294085 L225.372177,51.4294085 L224.186099,51.4294085 C223.530905,51.4294085 223,50.897862 223,50.2425646 C223,49.5870045 223.530905,49.0555237 224.186099,49.0555237 L225.372177,49.0555237 L225.372177,46.6817921 L224.186099,46.6817921 C223.530905,46.6817921 223,46.1503989 223,45.4947731 C223,44.8395632 223.530905,44.30817 224.186099,44.30817 L225.372177,44.30817 L225.372177,41.9344384 L224.186099,41.9344384 C223.530905,41.9344384 223,41.4029576 223,40.7475945 C223,40.0919906 223.530905,39.5607287 224.186099,39.5607287 L225.372177,39.5607287 L225.372177,39.5607287 C225.372177,37.5940264 226.965176,36 228.930759,36 L238.419882,36 C240.385488,36 241.978443,37.5940264 241.978443,39.5607287 L241.978443,45.9119397 C241.371516,45.0459461 240.552468,44.3527046 239.605872,43.8654956 L239.605872,43.8654956 L239.605872,43.8654956 Z M228.930759,44.30817 L232.906039,44.30817 C232.430204,44.6419384 232.017465,45.0490771 231.646718,45.4947731 L228.930759,45.4947731 L228.930759,44.30817 L228.930759,44.30817 L228.930759,44.30817 Z M228.930759,46.6817921 L230.860432,46.6817921 C230.666813,47.0585405 230.511467,47.4536369 230.393629,47.8688331 L228.930737,47.8688331 L228.930737,46.6817921 L228.930759,46.6817921 L228.930759,46.6817921 Z M228.930759,50.2425646 L228.930759,49.0555237 L230.176762,49.0555237 C230.158675,49.2540243 230.116881,49.4456718 230.116881,49.6490332 C230.116881,49.8521975 230.158697,50.0438669 230.176762,50.2425427 L228.930759,50.2425428 L228.930759,50.2425646 L228.930759,50.2425646 Z M228.930759,39.5607506 L238.419882,39.5607506 L238.419882,40.7476164 L228.930759,40.7476164 L228.930759,39.5607506 L228.930759,39.5607506 L228.930759,39.5607506 Z M238.41986,43.1213042 L228.930759,43.1213042 L228.930759,41.9344384 L238.419882,41.9344384 L238.419882,43.1213042 L238.41986,43.1213042 L238.41986,43.1213042 Z M231.30298,49.6490551 C231.30298,46.6993082 233.692653,44.30817 236.640679,44.30817 C239.58842,44.30817 241.978443,46.6993082 241.978443,49.6490551 C241.978443,52.5988021 239.588442,54.9896556 236.640679,54.9896556 C233.692653,54.9896556 231.30298,52.5987802 231.30298,49.6490551 L231.30298,49.6490551 L231.30298,49.6490551 Z M236.640679,52.6161868 C238.278359,52.6161868 239.605872,51.2876599 239.605872,49.6490332 C239.605872,48.0102314 238.278359,46.6817921 236.640679,46.6817921 C235.00267,46.6817921 233.675069,48.0102533 233.675069,49.6490332 C233.675069,51.2876599 235.00267,52.6161868 236.640679,52.6161868 L236.640679,52.6161868 L236.640679,52.6161868 Z M236.640679,47.8688331 C236.968276,47.8688331 237.233783,48.1344859 237.233783,48.4621893 L237.233783,49.0555456 L237.827106,49.0555456 C238.154375,49.0555456 238.419882,49.321286 238.419882,49.6490551 C238.419882,49.9766491 238.154375,50.2425646 237.827106,50.2425646 L236.640679,50.2425646 C236.313431,50.2425646 236.047662,49.9766272 236.047662,49.6490551 L236.047662,48.4621893 C236.047662,48.1344859 236.313431,47.8688331 236.640679,47.8688331 L236.640679,47.8688331 L236.640679,47.8688331 Z" id="Shape"></path>
            </g>
        </g>
    </g>
</svg>